M48
; DRILL file {LivePilot 16 Mainboard}
; FORMAT={-:-/ metric / keep zeros / absolute / decimal}
METRIC,TZ
T1C0.800
T2C0.900
T3C1.000
T4C3.200
%
T1
X16.190Y61.490
X23.810Y61.490
X16.190Y64.030
X23.810Y64.030
X16.190Y66.570
X23.810Y66.570
X16.190Y69.110
X23.810Y69.110
X16.190Y71.650
X23.810Y71.650
X16.190Y74.190
X23.810Y74.190
X16.190Y76.730
X23.810Y76.730
X16.190Y79.270
X23.810Y79.270
X16.190Y81.810
X23.810Y81.810
X16.190Y84.350
X23.810Y84.350
X16.190Y86.890
X23.810Y86.890
X16.190Y89.430
X23.810Y89.430
X16.190Y91.970
X23.810Y91.970
X16.190Y94.510
X23.810Y94.510
X36.190Y61.490
X43.810Y61.490
X36.190Y64.030
X43.810Y64.030
X36.190Y66.570
X43.810Y66.570
X36.190Y69.110
X43.810Y69.110
X36.190Y71.650
X43.810Y71.650
X36.190Y74.190
X43.810Y74.190
X36.190Y76.730
X43.810Y76.730
X36.190Y79.270
X43.810Y79.270
X36.190Y81.810
X43.810Y81.810
X36.190Y84.350
X43.810Y84.350
X36.190Y86.890
X43.810Y86.890
X36.190Y89.430
X43.810Y89.430
X36.190Y91.970
X43.810Y91.970
X36.190Y94.510
X43.810Y94.510
X56.190Y61.490
X63.810Y61.490
X56.190Y64.030
X63.810Y64.030
X56.190Y66.570
X63.810Y66.570
X56.190Y69.110
X63.810Y69.110
X56.190Y71.650
X63.810Y71.650
X56.190Y74.190
X63.810Y74.190
X56.190Y76.730
X63.810Y76.730
X56.190Y79.270
X63.810Y79.270
X56.190Y81.810
X63.810Y81.810
X56.190Y84.350
X63.810Y84.350
X56.190Y86.890
X63.810Y86.890
X56.190Y89.430
X63.810Y89.430
X56.190Y91.970
X63.810Y91.970
X56.190Y94.510
X63.810Y94.510
X76.190Y61.490
X83.810Y61.490
X76.190Y64.030
X83.810Y64.030
X76.190Y66.570
X83.810Y66.570
X76.190Y69.110
X83.810Y69.110
X76.190Y71.650
X83.810Y71.650
X76.190Y74.190
X83.810Y74.190
X76.190Y76.730
X83.810Y76.730
X76.190Y79.270
X83.810Y79.270
X76.190Y81.810
X83.810Y81.810
X76.190Y84.350
X83.810Y84.350
X76.190Y86.890
X83.810Y86.890
X76.190Y89.430
X83.810Y89.430
X76.190Y91.970
X83.810Y91.970
X76.190Y94.510
X83.810Y94.510
X23.000Y38.000
X23.000Y44.000
X26.000Y38.000
X26.000Y44.000
X18.000Y88.000
X18.000Y93.000
X18.730Y58.000
X21.270Y58.000
X38.730Y58.000
X41.270Y58.000
X58.730Y58.000
X61.270Y58.000
X78.730Y58.000
X81.270Y58.000
T2
X72.000Y96.000
X74.000Y96.000
X76.000Y96.000
X78.000Y96.000
X80.000Y96.000
X82.000Y96.000
X84.000Y96.000
X86.000Y96.000
X88.000Y96.000
X90.000Y96.000
X13.500Y82.000
X16.500Y82.000
T3
X37.300Y6.000
X62.700Y6.000
X37.300Y8.540
X62.700Y8.540
X37.300Y11.080
X62.700Y11.080
X37.300Y13.620
X62.700Y13.620
X37.300Y16.160
X62.700Y16.160
X37.300Y18.700
X62.700Y18.700
X37.300Y21.240
X62.700Y21.240
X37.300Y23.780
X62.700Y23.780
X37.300Y26.320
X62.700Y26.320
X37.300Y28.860
X62.700Y28.860
X37.300Y31.400
X62.700Y31.400
X37.300Y33.940
X62.700Y33.940
X37.300Y36.480
X62.700Y36.480
X37.300Y39.020
X62.700Y39.020
X37.300Y41.560
X62.700Y41.560
X37.300Y44.100
X62.700Y44.100
X37.300Y46.640
X62.700Y46.640
X37.300Y49.180
X62.700Y49.180
X37.300Y51.720
X62.700Y51.720
X37.300Y54.260
X62.700Y54.260
X37.300Y56.800
X62.700Y56.800
X37.300Y59.340
X62.700Y59.340
X10.000Y8.000
X10.000Y10.540
X10.000Y13.080
X10.000Y15.620
X10.000Y18.160
X10.000Y20.700
X10.000Y23.240
X10.000Y25.780
X90.000Y8.000
X90.000Y10.540
X90.000Y13.080
X90.000Y15.620
X90.000Y18.160
X90.000Y20.700
X90.000Y23.240
X90.000Y25.780
X10.000Y32.000
X10.000Y34.540
X10.000Y37.080
X10.000Y39.620
X10.000Y42.160
X10.000Y44.700
X10.000Y47.240
X10.000Y49.780
X10.000Y52.320
X10.000Y54.860
X10.000Y57.400
X10.000Y59.940
X10.000Y62.480
X10.000Y65.020
X10.000Y67.560
X10.000Y70.100
X90.000Y32.000
X90.000Y34.540
X90.000Y37.080
X90.000Y39.620
X90.000Y42.160
X90.000Y44.700
X90.000Y47.240
X90.000Y49.780
X90.000Y52.320
X90.000Y54.860
X90.000Y57.400
X90.000Y59.940
X90.000Y62.480
X90.000Y65.020
X90.000Y67.560
X90.000Y70.100
X28.000Y96.000
X30.540Y96.000
X33.080Y96.000
X35.620Y96.000
X38.160Y96.000
X40.700Y96.000
X43.240Y96.000
X45.780Y96.000
X48.320Y96.000
X50.860Y96.000
X53.400Y96.000
X55.940Y96.000
X58.480Y96.000
X61.020Y96.000
X63.560Y96.000
X66.100Y96.000
X68.640Y96.000
X71.180Y96.000
X12.000Y96.000
X14.540Y96.000
X17.080Y96.000
T4
X5.000Y5.000
X95.000Y5.000
X95.000Y95.000
X5.000Y95.000
M30
